PathFileType	4	(X/Y/Z)	6_coords_data.trc
DataRate	CameraRate	NumFrames	NumMarkers	Units	OrigDataRate	OrigDataStartFrame	OrigNumFrames
30.0	30.0	4	21	m	30.0	1	60
Frame#	Time	THUMB_TIP	THUMB_IP	THUMB_MCP	THUMB_CMC	INDEX_TIP	INDEX_DIP	INDEX_PIP	INDEX_MCP	MIDDLE_TIP	MIDDLE_DIP	MIDDLE_PIP	MIDDLE_MCP	RING_TIP	RING_DIP	RING_PIP	RING_MCP	PINKY_TIP	PINKY_DIP	PINKY_PIP	PINKY_MCP	WRIST
X1	Y1	Z1	X2	Y2	Z2	X3	Y3	Z3	X4	Y4	Z4	X5	Y5	Z5	X6	Y6	Z6	X7	Y7	Z7	X8	Y8	Z8	X9	Y9	Z9	X10	Y10	Z10	X11	Y11	Z11	X12	Y12	Z12	X13	Y13	Z13	X14	Y14	Z14	X15	Y15	Z15	X16	Y16	Z16	X17	Y17	Z17	X18	Y18	Z18	X19	Y19	Z19	X20	Y20	Z20	X21	Y21	Z21
0	-2.749317978547796e-18	0.5344046147140832	-0.02362068131423034	-0.10813761027810023	0.5183467372183677	-0.025271713127191786	-0.12449055081750127	0.4883329816221751	-0.019137976851583582	-0.11897949335878194	0.47670428716937213	-0.016886025203487698	-0.07597260810655762	0.5646156784989651	0.05662358835275472	-0.15470057495295253	0.5506178612603538	0.051421671011304015	-0.14445356716886498	0.5318396519188282	0.04314345477817372	-0.12993255401814507	0.5020263727862353	0.03319578787947863	-0.1011949757514449	0.4983504565236919	-0.0301363206719929	-0.10152803215785927	0.5136616917024183	-0.021878699515362143	-0.10656566752927069	0.5311512951453836	0.0013116769846006626	-0.10895935907117779	0.5142023685995156	0.03238951202607654	-0.08170041596845301	0.5105426231105117	-0.0329429983055336	-0.09375362628997858	0.5246122683432846	-0.02180530075703735	-0.09548474625755216	0.5416032873642302	-0.0036449237585325367	-0.09418630145624357	0.526702881482112	0.02216672171068579	-0.06686492343976119	0.5982498364156839	0.017426953855460225	-0.08700484682995518	0.5826909383682134	0.012419631088473437	-0.0819208119898272	0.5633760953512744	0.007804474913877479	-0.07510544760374394	0.5309930594803559	0.002899985333428612	-0.060000202794801866	0.4622830810018609	-0.023011742144276814	-0.05198982011943101
1	0.03333333333333339	0.5350152766277767	-0.023670434437833787	-0.10886417967894274	0.5189445603600894	-0.025296769040466627	-0.12520697975738007	0.4890392307519776	-0.019154445412983945	-0.1191437197855941	0.4759167817287488	-0.01737578412713181	-0.07654644644958147	0.5642225875046614	0.056380279491777485	-0.15513643331315796	0.550226473378666	0.05138553416125513	-0.14478455867832296	0.531498688319248	0.042959773266884604	-0.13028330172869496	0.5019707819016104	0.033257075653133295	-0.10116979119479766	0.49773658761275147	-0.02903901669360165	-0.10116526993474903	0.5132272209675639	-0.021050717538517283	-0.10608739903460557	0.5312756217418841	0.00170194192058859	-0.10853306193604453	0.5139832186484283	0.032733622274883745	-0.08143775734941375	0.5092931977508801	-0.03124307372922308	-0.09200198874218574	0.5238741445622535	-0.021114682660418715	-0.09513434958367045	0.5413294246982308	-0.0034002297651622992	-0.09383383699384312	0.5266001739282289	0.022446098546718196	-0.06645250542379538	0.5982684436116406	0.017674071204162423	-0.08680154624705264	0.5827764571663847	0.012663541314932414	-0.08152016894476283	0.5634543502926617	0.00806194913508218	-0.07471623226290236	0.5309786455715351	0.0029774961401121125	-0.05987169146137736	0.4622830810018609	-0.023011742144276814	-0.051989820119430985
2	0.06666666666666676	0.535471725481123	-0.023723302456894135	-0.10934186486214767	0.5194033802838516	-0.025336734906328484	-0.12568827481517525	0.48958717287001485	-0.019195029842675293	-0.11920034491680503	0.4752900959178027	-0.017767362466627024	-0.07696948704621603	0.5639144035666491	0.05604969328849685	-0.15552977844042515	0.5499193767653807	0.05124994273003325	-0.14508460637825638	0.5312260040585127	0.04275512955409566	-0.1305792349956258	0.501924399363336	0.033300979851091816	-0.10115694566116382	0.49728666119243164	-0.028206669892363312	-0.10089388264415858	0.5129095755877257	-0.020419055949863152	-0.10571857070452997	0.5313632670798402	0.002001636586428379	-0.1082052082951219	0.5138105002569453	0.032998311399134006	-0.08123755269778704	0.5084741190484916	-0.029884376905750187	-0.09070298065481747	0.5233369119445299	-0.020563726482702993	-0.09485302439203605	0.5411406636322882	-0.0031993431957022533	-0.0935551037847678	0.5265190280576528	0.02266176302541112	-0.0661300825059638	0.598273689174477	0.017870235775499843	-0.08665128488662094	0.582835104071277	0.012857280771175095	-0.0812180195575701	0.5635072394401287	0.008264296485609002	-0.07442462841966646	0.5309696177413558	0.0030325228772529744	-0.059768054123520264	0.4622830810018609	-0.023011742144276814	-0.051989820119430985
3	0.10000000000000014	0.5357964394715728	-0.023778800520796395	-0.10963323250837809	0.5197426814946111	-0.025389332498767292	-0.12599425452917712	0.4899935803633764	-0.019255310356686373	-0.11919831793117727	0.47482640062176806	-0.01806094653445567	-0.07726479728544697	0.5636863345905444	0.05564753724779159	-0.1558821264584377	0.5496916612157374	0.05103087081206881	-0.14535428203739217	0.5310183365678209	0.04253456961440405	-0.13082398109239876	0.5018868266001522	0.03332915404175296	-0.1011549476545125	0.49697602882460257	-0.027624220722172854	-0.10069609207625527	0.5126822254131129	-0.01995990027601824	-0.10544725833536658	0.5314216165706839	0.0022187628391696634	-0.10796751059785198	0.5136811839921713	0.033191116942766774	-0.08109488039147578	0.5079723373088436	-0.028891691538728503	-0.08980081698465764	0.522978381063043	-0.020148917713051162	-0.09463636831621336	0.5410277034273631	-0.0030393759476918802	-0.09334581736089284	0.5264585557913558	0.02281985722468738	-0.0658911122833154	0.598269177014791	0.018020049189742204	-0.08655102875940401	0.582871008444435	0.013005087664135662	-0.08100607018646744	0.5635388171717807	0.00841649762549257	-0.07422202706641151	0.5309653051343972	0.0030676777144700296	-0.05968793300761696	0.46228308100186083	-0.023011742144276814	-0.05198982011943101
